<svg xmlns="http://www.w3.org/2000/svg" version="1.1" xmlns:xlink="http://www.w3.org/1999/xlink" xmlns:svgjs="http://svgjs.dev/svgjs" viewBox="0 0 18.605414805972412 20.81958720167287"><g transform="matrix(1,0,0,1,8.311357000154175,19.06028992988119)"><g><path d=" M 0.055650000000000005 0.009300000000000017 Q 0.06555000000000001 0.009300000000000017 0.071925 0.012225000000000014 Q 0.07830000000000001 0.01515000000000001 0.08325 0.01905000000000001 Q 0.08625000000000001 0.021300000000000013 0.08782500000000001 0.01957500000000001 Q 0.08940000000000001 0.01785000000000002 0.09000000000000001 0.011400000000000007 L 0.09345 0.011400000000000007 Q 0.09315000000000001 0.01695000000000002 0.09300000000000001 0.02490000000000002 Q 0.09285 0.03285000000000002 0.09285 0.045900000000000024 L 0.08940000000000001 0.045900000000000024 Q 0.08835000000000001 0.03945000000000001 0.08745000000000001 0.03562500000000002 Q 0.08655 0.03180000000000002 0.085275 0.029100000000000015 Q 0.084 0.02640000000000002 0.08190000000000001 0.023700000000000013 Q 0.07725000000000001 0.01755000000000001 0.07020000000000001 0.01477500000000001 Q 0.06315000000000001 0.01200000000000001 0.05535 0.01200000000000001 Q 0.048 0.01200000000000001 0.042075 0.01567500000000001 Q 0.03615 0.01935000000000002 0.031875 0.02625000000000001 Q 0.027600000000000003 0.03315000000000001 0.025275000000000002 0.04290000000000002 Q 0.02295 0.052650000000000016 0.02295 0.06480000000000002 Q 0.02295 0.07740000000000002 0.025500000000000002 0.08707500000000001 Q 0.028050000000000002 0.09675000000000003 0.032625 0.10335000000000003 Q 0.037200000000000004 0.10995000000000002 0.043425000000000005 0.11332500000000002 Q 0.04965000000000001 0.11670000000000003 0.056850000000000005 0.11670000000000003 Q 0.0636 0.11670000000000003 0.07095000000000001 0.11400000000000002 Q 0.07830000000000001 0.11130000000000002 0.0825 0.10530000000000002 Q 0.0858 0.10095000000000003 0.08707500000000001 0.09585000000000002 Q 0.08835000000000001 0.09075000000000003 0.08940000000000001 0.08160000000000002 L 0.09285 0.08160000000000002 Q 0.09285 0.09525000000000003 0.09300000000000001 0.10357500000000003 Q 0.09315000000000001 0.11190000000000003 0.09345 0.11760000000000002 L 0.09000000000000001 0.11760000000000002 Q 0.08940000000000001 0.11115000000000003 0.08797500000000001 0.10950000000000003 Q 0.08655 0.10785000000000003 0.08325 0.10995000000000002 Q 0.0777 0.11385000000000002 0.07147500000000001 0.11677500000000002 Q 0.06525 0.11970000000000003 0.05550000000000001 0.11970000000000003 Q 0.04125 0.11970000000000003 0.030525000000000004 0.11325000000000002 Q 0.0198 0.10680000000000002 0.013875000000000002 0.09465000000000003 Q 0.00795 0.08250000000000002 0.00795 0.06540000000000001 Q 0.00795 0.04860000000000002 0.014100000000000001 0.03600000000000002 Q 0.02025 0.023400000000000018 0.030975000000000003 0.016350000000000017 Q 0.0417 0.009300000000000017 0.055650000000000005 0.009300000000000017 M 0.24929824218750002 0.03825000000000002 Q 0.2588982421875 0.03825000000000002 0.2665482421875 0.042450000000000015 Q 0.2741982421875 0.04665000000000001 0.27877324218750005 0.05565000000000002 Q 0.28334824218750004 0.06465000000000001 0.28334824218750004 0.07905000000000002 Q 0.28334824218750004 0.09345000000000002 0.27877324218750005 0.10237500000000002 Q 0.2741982421875 0.11130000000000002 0.2665482421875 0.11550000000000002 Q 0.2588982421875 0.11970000000000003 0.24929824218750002 0.11970000000000003 Q 0.23984824218750003 0.11970000000000003 0.23212324218750002 0.11550000000000002 Q 0.2243982421875 0.11130000000000002 0.21982324218750002 0.10237500000000002 Q 0.21524824218750002 0.09345000000000002 0.21524824218750002 0.07905000000000002 Q 0.21524824218750002 0.06465000000000001 0.21982324218750002 0.05565000000000002 Q 0.2243982421875 0.04665000000000001 0.23212324218750002 0.042450000000000015 Q 0.23984824218750003 0.03825000000000002 0.24929824218750002 0.03825000000000002 M 0.24929824218750002 0.04125000000000002 Q 0.24074824218750002 0.04125000000000002 0.2352732421875 0.05010000000000002 Q 0.22979824218750003 0.058950000000000016 0.22979824218750003 0.07905000000000002 Q 0.22979824218750003 0.09915000000000002 0.2352732421875 0.10792500000000002 Q 0.24074824218750002 0.11670000000000003 0.24929824218750002 0.11670000000000003 Q 0.2578482421875 0.11670000000000003 0.26332324218750003 0.10792500000000002 Q 0.26879824218750004 0.09915000000000002 0.26879824218750004 0.07905000000000002 Q 0.26879824218750004 0.058950000000000016 0.26332324218750003 0.05010000000000002 Q 0.2578482421875 0.04125000000000002 0.24929824218750002 0.04125000000000002 M 0.4372442871093751 0.03825000000000002 Q 0.4420442871093751 0.03825000000000002 0.4465442871093751 0.03945000000000001 Q 0.45104428710937505 0.04065000000000002 0.4546442871093751 0.04305000000000002 Q 0.45809428710937505 0.04530000000000002 0.4598942871093751 0.04822500000000002 Q 0.4616942871093751 0.051150000000000015 0.4616942871093751 0.054600000000000024 Q 0.4616942871093751 0.05865000000000002 0.45944428710937507 0.06082500000000002 Q 0.4571942871093751 0.06300000000000003 0.4537442871093751 0.06300000000000003 Q 0.45044428710937506 0.06300000000000003 0.44796928710937506 0.06105000000000002 Q 0.4454942871093751 0.05910000000000002 0.4454942871093751 0.05550000000000002 Q 0.4454942871093751 0.05205000000000001 0.44736928710937507 0.04995000000000002 Q 0.4492442871093751 0.04785000000000002 0.4517942871093751 0.047250000000000014 Q 0.4502942871093751 0.04455000000000002 0.44646928710937506 0.04275000000000001 Q 0.4426442871093751 0.040950000000000014 0.43829428710937507 0.040950000000000014 Q 0.4345442871093751 0.040950000000000014 0.43079428710937506 0.04275000000000001 Q 0.4270442871093751 0.04455000000000002 0.4238942871093751 0.048675000000000024 Q 0.42074428710937506 0.052800000000000014 0.41879428710937505 0.05992500000000002 Q 0.4168442871093751 0.06705000000000003 0.4168442871093751 0.07770000000000002 Q 0.4168442871093751 0.09090000000000002 0.4198442871093751 0.09870000000000002 Q 0.42284428710937505 0.10650000000000003 0.42771928710937507 0.10987500000000003 Q 0.4325942871093751 0.11325000000000002 0.4384442871093751 0.11325000000000002 Q 0.44234428710937507 0.11325000000000002 0.44639428710937507 0.11175000000000003 Q 0.45044428710937506 0.11025000000000003 0.45404428710937506 0.10687500000000003 Q 0.4576442871093751 0.10350000000000002 0.4601942871093751 0.09780000000000003 L 0.46304428710937506 0.09885000000000002 Q 0.46154428710937506 0.10365000000000002 0.45809428710937505 0.10852500000000002 Q 0.4546442871093751 0.11340000000000003 0.4490942871093751 0.11655000000000003 Q 0.4435442871093751 0.11970000000000003 0.4354442871093751 0.11970000000000003 Q 0.4261442871093751 0.11970000000000003 0.41864428710937507 0.11490000000000003 Q 0.41114428710937506 0.11010000000000002 0.4067192871093751 0.10117500000000001 Q 0.4022942871093751 0.09225000000000003 0.4022942871093751 0.07995000000000002 Q 0.4022942871093751 0.06765000000000002 0.4067192871093751 0.05827500000000002 Q 0.41114428710937506 0.04890000000000001 0.4190942871093751 0.043575000000000016 Q 0.4270442871093751 0.03825000000000002 0.4372442871093751 0.03825000000000002 M 0.6011977294921876 1.3877787807814457e-17 L 0.6011977294921876 0.10365000000000002 Q 0.6011977294921876 0.10995000000000002 0.6034477294921876 0.11220000000000002 Q 0.6056977294921876 0.11445000000000002 0.6110977294921875 0.11445000000000002 L 0.6110977294921875 0.11760000000000002 Q 0.6086977294921876 0.11745000000000003 0.6039727294921876 0.11722500000000002 Q 0.5992477294921876 0.11700000000000002 0.5944477294921876 0.11700000000000002 Q 0.5893477294921876 0.11700000000000002 0.5840977294921876 0.11722500000000002 Q 0.5788477294921877 0.11745000000000003 0.5762977294921876 0.11760000000000002 L 0.5762977294921876 0.11445000000000002 Q 0.5824477294921876 0.11445000000000002 0.5850727294921876 0.11220000000000002 Q 0.5876977294921876 0.10995000000000002 0.5876977294921876 0.10365000000000002 L 0.5876977294921876 0.018000000000000016 Q 0.5876977294921876 0.01125000000000001 0.5852977294921876 0.008025000000000018 Q 0.5828977294921877 0.004800000000000013 0.5762977294921876 0.004800000000000013 L 0.5762977294921876 0.0016500000000000126 Q 0.5810977294921876 0.0021000000000000185 0.5855977294921876 0.0021000000000000185 Q 0.5899477294921877 0.0021000000000000185 0.5939227294921876 0.001575000000000007 Q 0.5978977294921876 0.0010500000000000093 0.6011977294921876 1.3877787807814457e-17 M 0.6488977294921876 0.04035000000000001 L 0.6488977294921876 0.043350000000000014 Q 0.6451477294921876 0.04365000000000002 0.6418477294921876 0.04537500000000001 Q 0.6385477294921876 0.04710000000000002 0.6353977294921876 0.050400000000000014 L 0.6142477294921876 0.07260000000000003 L 0.6163477294921876 0.06840000000000002 L 0.6442477294921876 0.10665000000000002 Q 0.6467977294921876 0.11010000000000002 0.6491227294921876 0.11205000000000002 Q 0.6514477294921877 0.11400000000000002 0.6547477294921876 0.11445000000000002 L 0.6547477294921876 0.11760000000000002 Q 0.6530977294921876 0.11745000000000003 0.6495727294921876 0.11722500000000002 Q 0.6460477294921876 0.11700000000000002 0.6425977294921876 0.11700000000000002 Q 0.6379477294921876 0.11700000000000002 0.6331477294921876 0.11722500000000002 Q 0.6283477294921876 0.11745000000000003 0.6259477294921876 0.11760000000000002 L 0.6259477294921876 0.11445000000000002 Q 0.6289477294921876 0.11445000000000002 0.6301477294921876 0.11295000000000002 Q 0.6313477294921876 0.11145000000000002 0.6296977294921876 0.10935000000000003 L 0.6124477294921876 0.08415000000000003 Q 0.6095977294921876 0.08010000000000002 0.6072727294921876 0.07890000000000003 Q 0.6049477294921876 0.07770000000000002 0.6005977294921876 0.07755000000000002 L 0.6005977294921876 0.07455000000000002 Q 0.6053977294921876 0.07395000000000002 0.6083977294921876 0.07252500000000002 Q 0.6113977294921876 0.07110000000000002 0.6140977294921877 0.06825000000000002 L 0.6251977294921875 0.05670000000000002 Q 0.6299977294921876 0.05175000000000002 0.6299977294921876 0.04882500000000002 Q 0.6299977294921876 0.045900000000000024 0.6269227294921876 0.04462500000000001 Q 0.6238477294921876 0.043350000000000014 0.6188977294921876 0.043350000000000014 L 0.6188977294921876 0.04035000000000001 Q 0.6227977294921876 0.04050000000000002 0.6276727294921876 0.04072500000000001 Q 0.6325477294921876 0.040950000000000014 0.6358477294921876 0.040950000000000014 Q 0.6383977294921876 0.040950000000000014 0.6407977294921876 0.04087500000000002 Q 0.6431977294921876 0.04080000000000002 0.6452977294921876 0.04065000000000002 Q 0.6473977294921877 0.04050000000000002 0.6488977294921876 0.04035000000000001 M 0.7892958984375 0.01545000000000002 L 0.7892958984375 0.04050000000000002 L 0.8114958984375 0.04050000000000002 L 0.8114958984375 0.04350000000000001 L 0.7892958984375 0.04350000000000001 L 0.7892958984375 0.10155000000000003 Q 0.7892958984375 0.10860000000000003 0.7918458984375001 0.11145000000000002 Q 0.7943958984375 0.11430000000000003 0.7988958984375001 0.11430000000000003 Q 0.8033958984375 0.11430000000000003 0.8066958984375001 0.11062500000000003 Q 0.8099958984375001 0.10695000000000002 0.8123958984375 0.09825000000000002 L 0.8153958984375 0.09900000000000002 Q 0.8138958984375001 0.10770000000000002 0.8094708984375001 0.11370000000000002 Q 0.8050458984375001 0.11970000000000003 0.7958958984375001 0.11970000000000003 Q 0.7907958984375001 0.11970000000000003 0.7874958984375 0.11842500000000003 Q 0.7841958984375 0.11715000000000002 0.7816458984375001 0.11475000000000002 Q 0.7783458984375 0.11130000000000002 0.7770708984375001 0.10650000000000003 Q 0.7757958984375001 0.10170000000000003 0.7757958984375001 0.09375000000000003 L 0.7757958984375001 0.04350000000000001 L 0.7613958984375001 0.04350000000000001 L 0.7613958984375001 0.04050000000000002 L 0.7757958984375001 0.04050000000000002 L 0.7757958984375001 0.01755000000000001 Q 0.7795458984375001 0.017400000000000013 0.7829958984375001 0.01695000000000002 Q 0.7864458984375 0.016500000000000015 0.7892958984375 0.01545000000000002 M 0.944546484375 0.11865000000000002 Q 0.938396484375 0.11865000000000002 0.9338964843750001 0.11632500000000003 Q 0.929396484375 0.11400000000000002 0.9270714843750001 0.10980000000000002 Q 0.9247464843750001 0.10560000000000003 0.9247464843750001 0.10005000000000003 Q 0.9247464843750001 0.09345000000000002 0.927821484375 0.08925000000000002 Q 0.930896484375 0.08505000000000001 0.9356964843750001 0.08250000000000002 Q 0.940496484375 0.07995000000000002 0.945821484375 0.07822500000000002 Q 0.951146484375 0.07650000000000001 0.9559464843750001 0.07492500000000002 Q 0.9607464843750001 0.07335000000000003 0.963821484375 0.07125000000000002 Q 0.9668964843750001 0.06915000000000002 0.9668964843750001 0.06570000000000002 L 0.9668964843750001 0.05640000000000002 Q 0.9668964843750001 0.05010000000000002 0.965021484375 0.04680000000000002 Q 0.9631464843750001 0.04350000000000001 0.9599964843750001 0.042375000000000024 Q 0.9568464843750001 0.04125000000000002 0.9529464843750001 0.04125000000000002 Q 0.949196484375 0.04125000000000002 0.944921484375 0.04230000000000002 Q 0.9406464843750001 0.043350000000000014 0.938096484375 0.04665000000000001 Q 0.9409464843750001 0.047250000000000014 0.943046484375 0.049650000000000014 Q 0.945146484375 0.05205000000000001 0.945146484375 0.055800000000000016 Q 0.945146484375 0.05955000000000002 0.9427464843750001 0.061725000000000016 Q 0.940346484375 0.06390000000000001 0.9365964843750001 0.06390000000000001 Q 0.932246484375 0.06390000000000001 0.9302214843750001 0.06112500000000002 Q 0.928196484375 0.05835000000000002 0.928196484375 0.05490000000000002 Q 0.928196484375 0.05100000000000002 0.930146484375 0.04860000000000002 Q 0.932096484375 0.04620000000000002 0.935096484375 0.044100000000000014 Q 0.938546484375 0.041700000000000015 0.944021484375 0.03997500000000001 Q 0.949496484375 0.03825000000000002 0.956396484375 0.03825000000000002 Q 0.962546484375 0.03825000000000002 0.9668964843750001 0.039675000000000016 Q 0.971246484375 0.04110000000000001 0.9740964843750001 0.04380000000000002 Q 0.9779964843750001 0.04740000000000001 0.9791964843750001 0.052575000000000024 Q 0.980396484375 0.05775000000000002 0.980396484375 0.06495000000000002 L 0.980396484375 0.10665000000000002 Q 0.980396484375 0.11040000000000003 0.9815214843750001 0.11205000000000002 Q 0.982646484375 0.11370000000000002 0.9850464843750001 0.11370000000000002 Q 0.986696484375 0.11370000000000002 0.9881964843750001 0.11295000000000002 Q 0.989696484375 0.11220000000000002 0.991796484375 0.11055000000000002 L 0.993446484375 0.11310000000000002 Q 0.9902964843750001 0.11550000000000002 0.987446484375 0.11707500000000003 Q 0.984596484375 0.11865000000000002 0.979796484375 0.11865000000000002 Q 0.975446484375 0.11865000000000002 0.972596484375 0.11715000000000002 Q 0.9697464843750001 0.11565000000000003 0.9683214843750001 0.11272500000000002 Q 0.9668964843750001 0.10980000000000002 0.9668964843750001 0.10530000000000002 Q 0.9628464843750001 0.11205000000000002 0.9572214843750001 0.11535000000000002 Q 0.951596484375 0.11865000000000002 0.944546484375 0.11865000000000002 M 0.9499464843750001 0.11265000000000003 Q 0.9548964843750001 0.11265000000000003 0.9591714843750001 0.10980000000000002 Q 0.963446484375 0.10695000000000002 0.9668964843750001 0.10125000000000002 L 0.9668964843750001 0.07185000000000002 Q 0.9650964843750001 0.07440000000000002 0.961646484375 0.07612500000000003 Q 0.958196484375 0.07785000000000003 0.954146484375 0.07957500000000002 Q 0.950096484375 0.08130000000000001 0.9464214843750001 0.08362500000000002 Q 0.9427464843750001 0.08595000000000003 0.940346484375 0.08970000000000003 Q 0.9379464843750001 0.09345000000000002 0.9379464843750001 0.09945000000000002 Q 0.9379464843750001 0.10545000000000002 0.9411714843750001 0.10905000000000002 Q 0.944396484375 0.11265000000000003 0.9499464843750001 0.11265000000000003 M 1.1200443603515626 0.002850000000000019 Q 1.1239443603515626 0.002850000000000019 1.1267943603515627 0.005700000000000011 Q 1.1296443603515627 0.008550000000000016 1.1296443603515627 0.012450000000000017 Q 1.1296443603515627 0.016350000000000017 1.1267943603515627 0.01920000000000001 Q 1.1239443603515626 0.022050000000000014 1.1200443603515626 0.022050000000000014 Q 1.1161443603515626 0.022050000000000014 1.1132943603515626 0.01920000000000001 Q 1.1104443603515626 0.016350000000000017 1.1104443603515626 0.012450000000000017 Q 1.1104443603515626 0.008550000000000016 1.1132943603515626 0.005700000000000011 Q 1.1161443603515626 0.002850000000000019 1.1200443603515626 0.002850000000000019 M 1.1278443603515627 0.03870000000000001 L 1.1278443603515627 0.10365000000000002 Q 1.1278443603515627 0.10995000000000002 1.1304693603515628 0.11220000000000002 Q 1.1330943603515626 0.11445000000000002 1.1392443603515627 0.11445000000000002 L 1.1392443603515627 0.11760000000000002 Q 1.1366943603515627 0.11745000000000003 1.1315193603515628 0.11722500000000002 Q 1.1263443603515626 0.11700000000000002 1.1210943603515626 0.11700000000000002 Q 1.1159943603515627 0.11700000000000002 1.1107443603515628 0.11722500000000002 Q 1.1054943603515626 0.11745000000000003 1.1029443603515627 0.11760000000000002 L 1.1029443603515627 0.11445000000000002 Q 1.1090943603515626 0.11445000000000002 1.1117193603515627 0.11220000000000002 Q 1.1143443603515626 0.10995000000000002 1.1143443603515626 0.10365000000000002 L 1.1143443603515626 0.05670000000000002 Q 1.1143443603515626 0.04995000000000002 1.1119443603515626 0.046725000000000017 Q 1.1095443603515627 0.04350000000000001 1.1029443603515627 0.04350000000000001 L 1.1029443603515627 0.04035000000000001 Q 1.1077443603515627 0.04080000000000002 1.1122443603515626 0.04080000000000002 Q 1.1165943603515627 0.04080000000000002 1.1205693603515627 0.04027500000000002 Q 1.1245443603515626 0.03975000000000002 1.1278443603515627 0.03870000000000001 M 1.2757488281250002 1.3877787807814457e-17 L 1.2757488281250002 0.10365000000000002 Q 1.2757488281250002 0.10995000000000002 1.2783738281250003 0.11220000000000002 Q 1.2809988281250002 0.11445000000000002 1.2871488281250003 0.11445000000000002 L 1.2871488281250003 0.11760000000000002 Q 1.2845988281250003 0.11745000000000003 1.2794238281250003 0.11722500000000002 Q 1.2742488281250002 0.11700000000000002 1.2689988281250002 0.11700000000000002 Q 1.2638988281250003 0.11700000000000002 1.2586488281250003 0.11722500000000002 Q 1.2533988281250001 0.11745000000000003 1.2508488281250003 0.11760000000000002 L 1.2508488281250003 0.11445000000000002 Q 1.2569988281250002 0.11445000000000002 1.2596238281250003 0.11220000000000002 Q 1.2622488281250002 0.10995000000000002 1.2622488281250002 0.10365000000000002 L 1.2622488281250002 0.018000000000000016 Q 1.2622488281250002 0.01125000000000001 1.2598488281250002 0.008025000000000018 Q 1.2574488281250003 0.004800000000000013 1.2508488281250003 0.004800000000000013 L 1.2508488281250003 0.0016500000000000126 Q 1.2556488281250002 0.0021000000000000185 1.2601488281250002 0.0021000000000000185 Q 1.2644988281250003 0.0021000000000000185 1.2684738281250003 0.001575000000000007 Q 1.2724488281250002 0.0010500000000000093 1.2757488281250002 1.3877787807814457e-17 M 1.5441039550781253 0.011400000000000007 Q 1.5472539550781252 0.011550000000000019 1.5523539550781253 0.011700000000000016 Q 1.5574539550781252 0.011850000000000013 1.5624039550781252 0.011850000000000013 Q 1.5694539550781252 0.011850000000000013 1.5759039550781253 0.011700000000000016 Q 1.5823539550781254 0.011550000000000019 1.5850539550781253 0.011550000000000019 Q 1.6008039550781252 0.011550000000000019 1.6087539550781254 0.018150000000000013 Q 1.6167039550781253 0.024750000000000022 1.6167039550781253 0.03510000000000002 Q 1.6167039550781253 0.04035000000000001 1.6145289550781252 0.04537500000000001 Q 1.6123539550781252 0.050400000000000014 1.6073289550781253 0.05452500000000002 Q 1.6023039550781253 0.05865000000000002 1.5939039550781253 0.06120000000000002 L 1.5939039550781253 0.06150000000000002 Q 1.6057539550781252 0.06300000000000003 1.6124289550781252 0.06712500000000002 Q 1.6191039550781252 0.07125000000000002 1.6218039550781254 0.07680000000000002 Q 1.6245039550781253 0.08235000000000002 1.6245039550781253 0.08850000000000002 Q 1.6245039550781253 0.09705000000000003 1.6202289550781253 0.10357500000000003 Q 1.6159539550781252 0.11010000000000002 1.6078539550781252 0.11385000000000002 Q 1.5997539550781252 0.11760000000000002 1.5885039550781253 0.11760000000000002 Q 1.5852039550781254 0.11760000000000002 1.5786039550781252 0.11737500000000002 Q 1.5720039550781253 0.11715000000000002 1.5627039550781252 0.11715000000000002 Q 1.5574539550781252 0.11715000000000002 1.5523539550781253 0.11722500000000002 Q 1.5472539550781252 0.11730000000000003 1.5441039550781253 0.11760000000000002 L 1.5441039550781253 0.11460000000000002 Q 1.5492039550781254 0.11430000000000003 1.5518289550781252 0.11340000000000003 Q 1.5544539550781253 0.11250000000000002 1.5553539550781252 0.10980000000000002 Q 1.5562539550781254 0.10710000000000003 1.5562539550781254 0.10170000000000003 L 1.5562539550781254 0.02730000000000002 Q 1.5562539550781254 0.02175000000000002 1.5553539550781252 0.019125000000000017 Q 1.5544539550781253 0.016500000000000015 1.5518289550781252 0.015525000000000011 Q 1.5492039550781254 0.014550000000000021 1.5441039550781253 0.01440000000000001 L 1.5441039550781253 0.011400000000000007 M 1.5813039550781254 0.01440000000000001 Q 1.5744039550781253 0.01440000000000001 1.5723039550781253 0.01695000000000002 Q 1.5702039550781253 0.019500000000000017 1.5702039550781253 0.02730000000000002 L 1.5702039550781253 0.10170000000000003 Q 1.5702039550781253 0.10695000000000002 1.5711039550781254 0.10965000000000003 Q 1.5720039550781253 0.11235000000000002 1.5744039550781253 0.11325000000000002 Q 1.5768039550781252 0.11415000000000003 1.5814539550781253 0.11415000000000003 Q 1.5961539550781252 0.11415000000000003 1.6028289550781252 0.10732500000000002 Q 1.6095039550781254 0.10050000000000002 1.6095039550781254 0.08790000000000002 Q 1.6095039550781254 0.07635000000000003 1.6032789550781252 0.07005000000000003 Q 1.5970539550781253 0.06375000000000003 1.5828039550781252 0.06375000000000003 L 1.5673539550781252 0.06375000000000003 Q 1.5673539550781252 0.06375000000000003 1.5673539550781252 0.06247500000000002 Q 1.5673539550781252 0.06120000000000002 1.5673539550781252 0.06120000000000002 L 1.5802539550781254 0.06120000000000002 Q 1.5891039550781252 0.06120000000000002 1.5939039550781253 0.057825000000000015 Q 1.5987039550781252 0.05445000000000001 1.6005039550781253 0.04882500000000002 Q 1.6023039550781253 0.043200000000000016 1.6023039550781253 0.03675000000000002 Q 1.6023039550781253 0.02565000000000002 1.5974289550781253 0.020025000000000015 Q 1.5925539550781254 0.01440000000000001 1.5813039550781254 0.01440000000000001 M 1.7619018310546877 0.11865000000000002 Q 1.7557518310546878 0.11865000000000002 1.7512518310546876 0.11632500000000003 Q 1.7467518310546877 0.11400000000000002 1.7444268310546878 0.10980000000000002 Q 1.7421018310546876 0.10560000000000003 1.7421018310546876 0.10005000000000003 Q 1.7421018310546876 0.09345000000000002 1.7451768310546878 0.08925000000000002 Q 1.7482518310546877 0.08505000000000001 1.7530518310546876 0.08250000000000002 Q 1.7578518310546878 0.07995000000000002 1.7631768310546878 0.07822500000000002 Q 1.7685018310546878 0.07650000000000001 1.7733018310546877 0.07492500000000002 Q 1.7781018310546877 0.07335000000000003 1.7811768310546878 0.07125000000000002 Q 1.7842518310546878 0.06915000000000002 1.7842518310546878 0.06570000000000002 L 1.7842518310546878 0.05640000000000002 Q 1.7842518310546878 0.05010000000000002 1.7823768310546877 0.04680000000000002 Q 1.7805018310546876 0.04350000000000001 1.7773518310546876 0.042375000000000024 Q 1.7742018310546877 0.04125000000000002 1.7703018310546876 0.04125000000000002 Q 1.7665518310546877 0.04125000000000002 1.7622768310546877 0.04230000000000002 Q 1.7580018310546877 0.043350000000000014 1.7554518310546878 0.04665000000000001 Q 1.7583018310546876 0.047250000000000014 1.7604018310546876 0.049650000000000014 Q 1.7625018310546878 0.05205000000000001 1.7625018310546878 0.055800000000000016 Q 1.7625018310546878 0.05955000000000002 1.7601018310546876 0.061725000000000016 Q 1.7577018310546877 0.06390000000000001 1.7539518310546878 0.06390000000000001 Q 1.7496018310546877 0.06390000000000001 1.7475768310546878 0.06112500000000002 Q 1.7455518310546878 0.05835000000000002 1.7455518310546878 0.05490000000000002 Q 1.7455518310546878 0.05100000000000002 1.7475018310546877 0.04860000000000002 Q 1.7494518310546878 0.04620000000000002 1.7524518310546877 0.044100000000000014 Q 1.7559018310546877 0.041700000000000015 1.7613768310546878 0.03997500000000001 Q 1.7668518310546877 0.03825000000000002 1.7737518310546878 0.03825000000000002 Q 1.7799018310546877 0.03825000000000002 1.7842518310546878 0.039675000000000016 Q 1.7886018310546876 0.04110000000000001 1.7914518310546876 0.04380000000000002 Q 1.7953518310546877 0.04740000000000001 1.7965518310546877 0.052575000000000024 Q 1.7977518310546878 0.05775000000000002 1.7977518310546878 0.06495000000000002 L 1.7977518310546878 0.10665000000000002 Q 1.7977518310546878 0.11040000000000003 1.7988768310546877 0.11205000000000002 Q 1.8000018310546877 0.11370000000000002 1.8024018310546877 0.11370000000000002 Q 1.8040518310546878 0.11370000000000002 1.8055518310546876 0.11295000000000002 Q 1.8070518310546877 0.11220000000000002 1.8091518310546877 0.11055000000000002 L 1.8108018310546878 0.11310000000000002 Q 1.8076518310546876 0.11550000000000002 1.8048018310546876 0.11707500000000003 Q 1.8019518310546878 0.11865000000000002 1.7971518310546877 0.11865000000000002 Q 1.7928018310546878 0.11865000000000002 1.7899518310546878 0.11715000000000002 Q 1.7871018310546878 0.11565000000000003 1.7856768310546878 0.11272500000000002 Q 1.7842518310546878 0.10980000000000002 1.7842518310546878 0.10530000000000002 Q 1.7802018310546877 0.11205000000000002 1.7745768310546877 0.11535000000000002 Q 1.7689518310546877 0.11865000000000002 1.7619018310546877 0.11865000000000002 M 1.7673018310546877 0.11265000000000003 Q 1.7722518310546878 0.11265000000000003 1.7765268310546878 0.10980000000000002 Q 1.7808018310546878 0.10695000000000002 1.7842518310546878 0.10125000000000002 L 1.7842518310546878 0.07185000000000002 Q 1.7824518310546877 0.07440000000000002 1.7790018310546878 0.07612500000000003 Q 1.7755518310546878 0.07785000000000003 1.7715018310546877 0.07957500000000002 Q 1.7674518310546876 0.08130000000000001 1.7637768310546877 0.08362500000000002 Q 1.7601018310546876 0.08595000000000003 1.7577018310546877 0.08970000000000003 Q 1.7553018310546877 0.09345000000000002 1.7553018310546877 0.09945000000000002 Q 1.7553018310546877 0.10545000000000002 1.7585268310546878 0.10905000000000002 Q 1.7617518310546878 0.11265000000000003 1.7673018310546877 0.11265000000000003 M 1.9669497070312503 0.03825000000000002 Q 1.9709997070312504 0.03825000000000002 1.9740747070312503 0.03990000000000002 Q 1.9771497070312503 0.04155000000000002 1.9788747070312502 0.04417500000000002 Q 1.9805997070312504 0.04680000000000002 1.9805997070312504 0.05010000000000002 Q 1.9805997070312504 0.05385000000000002 1.9782747070312503 0.05670000000000002 Q 1.9759497070312504 0.05955000000000002 1.9720497070312504 0.05955000000000002 Q 1.9688997070312504 0.05955000000000002 1.9664997070312504 0.05752500000000002 Q 1.9640997070312503 0.05550000000000002 1.9640997070312503 0.05175000000000002 Q 1.9640997070312503 0.04890000000000001 1.9656747070312504 0.046875000000000014 Q 1.9672497070312502 0.044850000000000015 1.9691997070312504 0.04365000000000002 Q 1.9681497070312504 0.04215000000000002 1.9660497070312504 0.04215000000000002 Q 1.9613997070312503 0.04215000000000002 1.9574997070312503 0.04492500000000002 Q 1.9535997070312503 0.04770000000000002 1.9508997070312504 0.05205000000000001 Q 1.9481997070312502 0.05640000000000002 1.9466997070312504 0.06127500000000002 Q 1.9451997070312503 0.06615000000000001 1.9451997070312503 0.07035000000000002 L 1.9451997070312503 0.10215000000000002 Q 1.9451997070312503 0.10950000000000003 1.9494747070312504 0.11197500000000002 Q 1.9537497070312504 0.11445000000000002 1.9610997070312504 0.11445000000000002 L 1.9610997070312504 0.11760000000000002 Q 1.9576497070312504 0.11745000000000003 1.9513497070312504 0.11722500000000002 Q 1.9450497070312502 0.11700000000000002 1.9379997070312502 0.11700000000000002 Q 1.9328997070312504 0.11700000000000002 1.9278747070312503 0.11722500000000002 Q 1.9228497070312502 0.11745000000000003 1.9202997070312504 0.11760000000000002 L 1.9202997070312504 0.11445000000000002 Q 1.9264497070312503 0.11445000000000002 1.9290747070312504 0.11220000000000002 Q 1.9316997070312503 0.10995000000000002 1.9316997070312503 0.10365000000000002 L 1.9316997070312503 0.05670000000000002 Q 1.9316997070312503 0.04995000000000002 1.9292997070312503 0.046725000000000017 Q 1.9268997070312504 0.04350000000000001 1.9202997070312504 0.04350000000000001 L 1.9202997070312504 0.04035000000000001 Q 1.9250997070312503 0.04080000000000002 1.9295997070312503 0.04080000000000002 Q 1.9339497070312504 0.04080000000000002 1.9379247070312504 0.04027500000000002 Q 1.9418997070312503 0.03975000000000002 1.9451997070312503 0.03870000000000001 L 1.9451997070312503 0.057450000000000015 Q 1.9468497070312503 0.05310000000000002 1.9499247070312504 0.048675000000000024 Q 1.9529997070312504 0.04425000000000001 1.9573497070312504 0.04125000000000002 Q 1.9616997070312503 0.03825000000000002 1.9669497070312503 0.03825000000000002" fill="#cfc3b3" fill-rule="nonzero"></path></g><g></g><g clip-path="url(#SvgjsClipPath1001)"><g clip-path="url(#ae82d9c8c-f371-43db-8940-86cb4808343dc4449ba5-8f32-47f6-b00a-dfed8ef02da2)"><path d=" M 2.703739396192266 -11.960987551684969 C 3.2082406267303076 -11.569670234347672 3.2150615028553995 -10.733108047809068 2.7184469103369944 -10.093468209042648 C 2.2214973640803057 -9.45276260838168 1.409721754174849 -9.250815954535211 0.9055554773750947 -9.641432914056093 C 0.4017850549933133 -10.032049873576975 0.3956645366846372 -10.86891656351402 0.8926140829413249 -11.509652614514833 C 1.388162913565183 -12.149657857359385 2.199908073130797 -12.351969915283982 2.703739396192266 -11.960987551684969" fill="#cfc3b3" transform="matrix(1,0,0,1,0,0)" fill-rule="nonzero"></path></g><g clip-path="url(#ae82d9c8c-f371-43db-8940-86cb4808343dc4449ba5-8f32-47f6-b00a-dfed8ef02da2)"><path d=" M 1.5093248158050967 -9.264153203386952 C 1.249309363875815 -9.264153203386952 1.000865041087315 -9.340309503337197 0.7952034457798591 -9.49926027732371 C 0.5071127805142632 -9.722796222119689 0.3471266949730465 -10.071269911296255 0.3442948133675401 -10.480461578122075 C 0.3414629317620328 -10.873849518568775 0.48570619160381767 -11.278443184078128 0.7509895523261392 -11.619913295090535 C 1.0563151099435295 -12.014671500830225 1.484081484074287 -12.272951283388387 1.9244847492403716 -12.328766756322732 C 2.2550231882487255 -12.371579934143622 2.571584921268612 -12.290521129478467 2.8140914277875018 -12.10312973807751 C 3.102212543392942 -11.879228389203401 3.2628989867505735 -11.530754700026836 3.266065822094366 -11.121928437279145 C 3.2692326574381587 -10.728540496832444 3.1253548016745034 -10.324281785061379 2.860406394690469 -9.983207528466945 C 2.5003615763731224 -9.518931196863038 1.985537680627913 -9.264153203386952 1.5093248158050967 -9.264153203386952 M 2.098934746207564 -11.980658471224299 C 2.056791475863247 -11.980658471224299 2.0136433443040724 -11.97782658961879 1.9693990005105073 -11.972223727087465 C 1.6233917888613183 -11.92834478737203 1.28265248600517 -11.719546807060627 1.0349085210330857 -11.399879139376637 C 0.8187415584793936 -11.12159348354086 0.7011727963410941 -10.79592709890757 0.7032738697903405 -10.482897605309606 C 0.7053749432395877 -10.186372195907179 0.8162750809520176 -9.937927873118678 1.0156030055718883 -9.783514199768945 C 1.4409029021752682 -9.453310714498874 2.1413520696104777 -9.642102821532664 2.576822379721807 -10.203576637919127 C 2.792349885138772 -10.48116193593849 2.909522792859099 -10.80609751241552 2.9070867656715658 -11.118792052275197 C 2.9046507384840323 -11.415652415415911 2.793385196693472 -11.664127188544256 2.5936918679954717 -11.818875815632277 C 2.4561476829194033 -11.925908760184498 2.286996045085094 -11.980658471224299 2.098934746207564 -11.980658471224299" fill="#cfc3b3" transform="matrix(1,0,0,1,0,0)" fill-rule="nonzero"></path></g><g clip-path="url(#ae82d9c8c-f371-43db-8940-86cb4808343dc4449ba5-8f32-47f6-b00a-dfed8ef02da2)"><path d=" M 5.25757894858211 -0.25 L -3.2747280771108587 -0.25 C -3.3877597386123797 -0.25 -3.5986587923730307 -0.25 -3.615162876568565 -0.43809174921737437 C -3.632367318580516 -0.6332175269387506 -3.6421723280103353 -0.7405854252292592 0.34922776842229464 -1.4540064374380801 L 0.35096343779341144 -7.6667588255021695 L -6.577980943405319 -15.532325209967414 C -6.676274640422268 -15.64429110957439 -6.6990514946256985 -15.79763902102958 -6.637998563238159 -15.932747178918115 C -6.576580227772489 -16.068190290544937 -6.446039620860576 -16.152415930553882 -6.297594214120297 -16.152415930553882 L 5.244241699730368 -16.152415930553882 L 6.078398309421282 -17.344150881034768 C 6.132752166043109 -17.421707896617843 6.23874979904063 -17.443814843344704 6.319108245889367 -17.394333041097944 L 6.903419817158951 -17.036389296229846 C 6.9475170317862736 -17.009481643555464 6.977835538680517 -16.964830953431466 6.986579695273352 -16.91391802937663 C 6.9955674733031765 -16.863005606921103 6.982136593389769 -16.810691774663336 6.949734784061916 -16.770405577691108 L 6.453516045961488 -16.152415930553882 L 8.280414635251702 -16.152415930553882 C 8.429225446070113 -16.152415930553882 8.559400648903896 -16.06819029054494 8.620818984369567 -15.932747178918115 C 8.681871915757107 -15.797273616951447 8.658699207135701 -15.643925705496256 8.56046641079844 -15.532325209967414 L 1.6353587724200738 -7.675893927455418 L 1.631856983337996 -1.4656080169187025 C 5.687446396162115 -0.7640930875889502 5.677610936392452 -0.6444232520014026 5.660802348798476 -0.4461610892760781 C 5.6442982646029405 -0.25 5.420762319806962 -0.25 5.25757894858211 -0.25 M -2.1514759409394895 -0.6093444605009317 L 4.232864112146442 -0.6093444605009317 C 3.4931035559724224 -0.7602563447685853 2.5003920267129667 -0.942014423298378 1.5718698138450007 -1.099929885730191 C 1.3914515502683527 -1.1417077519963748 1.272512522837065 -1.291188470291356 1.272512522837065 -1.4656080169187042 L 1.272512522837065 -7.6667588255021695 C 1.2727372595203992 -7.7573448848235635 1.3056261766578157 -7.844810808440176 1.3651424566429897 -7.913102074841413 L 8.290950452837784 -15.770264165509678 L 6.148921296500359 -15.77343100085347 L 0.45062740010334856 -8.67810596274625 C 0.3898206269073663 -8.602872367854728 0.2804503216787957 -8.589093537611454 0.20288343513126517 -8.646894364405986 C 0.12523001217829588 -8.70512273583212 0.10782790091903127 -8.814482401708496 0.16357204639245282 -8.893937971561655 L 4.980359054640879 -15.77516667022459 L -6.297594214120295 -15.793071470052954 L 0.6169471563321469 -7.913802432657839 C 0.6773301802431178 -7.844314757133466 0.7103383486341865 -7.7569527321205705 0.7103383486341865 -7.6667588255021695 L 0.7103383486341865 -1.4656080169187042 C 0.7107534106134841 -1.2918489515486158 0.5908660845341496 -1.140931221091332 0.4215168752123395 -1.1020309591794373 C -0.47472797742082573 -0.9416794695600892 -1.4285239723594465 -0.7602563447685853 -2.1514759409394877 -0.6093444605009317 M 5.41832629261943 -15.774466312408173 L 3.5815617932197066 -13.150286474978321 L 5.688877562134791 -15.774131358669887 Z M 5.6829092955253335 -16.152415930553882 L 5.992406549701376 -16.152415930553882 L 6.54194383286893 -16.83636101379356 L 6.275594710252061 -16.999544385018414 Z M 0.017928070917835548 -9.375388294837668 C -0.03421316625942161 -9.375355026638214 -0.08378320850070331 -9.398033404339987 -0.11784999444727262 -9.437506988119756 L -4.978850896149421 -15.057543511117272 C -5.010050340102809 -15.093550526240545 -5.02565547331362 -15.140483731600167 -5.022228537978245 -15.18800390158403 C -5.01880160264287 -15.235524071567893 -4.996623752388686 -15.279732542543023 -4.960580692242924 -15.310890338620684 C -4.924577544265322 -15.342093425794772 -4.877646703722554 -15.357703780135775 -4.830126659495795 -15.354282565413198 C -4.782606615269036 -15.350861350690623 -4.738395930224584 -15.328689244687753 -4.707233864739516 -15.292650585054028 L 0.15376703696263316 -9.672644512396356 C 0.18496050010019083 -9.636629030617396 0.20056137545784658 -9.589692749842882 0.19713467123763806 -9.542170073482307 C 0.1937079670174331 -9.494647397121728 0.1715346516669296 -9.450434889262116 0.1354968330561377 -9.419267234553102 C 0.10290256208469017 -9.390905376701278 0.06113427819317874 -9.37531664396684 0.017928070917835548 -9.375388294837666" fill="#cfc3b3" transform="matrix(1,0,0,1,0,0)" fill-rule="nonzero"></path></g></g></g><defs><clipPath id="SvgjsClipPath1001"><path d=" M -6.6717597283624945 -17.42069265808951 h 15.326220262389052 v 17.17069265808951 h -15.326220262389052 Z"></path></clipPath><clipPath id="ae82d9c8c-f371-43db-8940-86cb4808343dc4449ba5-8f32-47f6-b00a-dfed8ef02da2"><path d=" M -6.671767990125332 -0.25 L 8.654466609897359 -0.25 L 8.654466609897359 -17.42070303540299 L -6.671767990125332 -17.42070303540299 Z"></path></clipPath></defs></svg>