<svg id="visual" viewBox="0 0 75 75" width="75" height="75" xmlns="http://www.w3.org/2000/svg" xmlns:xlink="http://www.w3.org/1999/xlink" version="1.1"><rect x="0" y="0" width="75" height="75" fill="#0f1d20"></rect><g transform="translate(33.723306529748776 38.496119100887185)"><path d="M8.2 -11.5C12.4 -11.8 18.7 -13.1 24 -11.4C29.2 -9.7 33.4 -4.8 30.8 -1.5C28.2 1.8 18.9 3.7 12.6 3.7C6.4 3.7 3.2 1.8 1.6 3.6C0 5.3 0 10.7 -1.9 14C-3.8 17.3 -7.7 18.6 -12.9 18.9C-18.1 19.3 -24.6 18.6 -24 15.3C-23.5 12 -15.7 6 -11.7 2.3C-7.6 -1.3 -7.3 -2.7 -8.5 -7.1C-9.8 -11.6 -12.6 -19.2 -11.5 -20.7C-10.3 -22.2 -5.2 -17.6 -1.6 -14.9C2 -12.1 4 -11.3 8.2 -11.5" fill="none" stroke="#cfc3b3" stroke-width="1"></path></g></svg>